<mxfile host="app.diagrams.net" modified="2021-07-16T14:05:56.980Z" agent="5.0 (X11)" etag="rKRb8Eppjt6p3HFKPA4k" version="14.8.6" type="github">
  <diagram id="l4B-kVFY5lsrP2lxEMPw" name="Page-1">
    <mxGraphModel dx="1422" dy="755" grid="1" gridSize="10" guides="1" tooltips="1" connect="1" arrows="1" fold="1" page="1" pageScale="1" pageWidth="850" pageHeight="1100" math="0" shadow="0">
      <root>
        <mxCell id="0" />
        <mxCell id="1" parent="0" />
        <mxCell id="wVDAjLhzSWAhfLpEM_xM-1" value="&lt;div&gt;1 - Usuário precisa de conta&lt;/div&gt;&lt;div&gt;2 - Encurtar URL&lt;/div&gt;&lt;div&gt;3 - Redirect para URL original&lt;br&gt;&lt;/div&gt;" style="rounded=0;whiteSpace=wrap;html=1;" vertex="1" parent="1">
          <mxGeometry x="40" y="20" width="190" height="50" as="geometry" />
        </mxCell>
        <mxCell id="wVDAjLhzSWAhfLpEM_xM-78" style="edgeStyle=orthogonalEdgeStyle;rounded=0;orthogonalLoop=1;jettySize=auto;html=1;entryX=0;entryY=0.5;entryDx=0;entryDy=0;" edge="1" parent="1" source="wVDAjLhzSWAhfLpEM_xM-2" target="wVDAjLhzSWAhfLpEM_xM-73">
          <mxGeometry relative="1" as="geometry" />
        </mxCell>
        <mxCell id="wVDAjLhzSWAhfLpEM_xM-2" value="Actor" style="shape=umlActor;verticalLabelPosition=bottom;verticalAlign=top;html=1;outlineConnect=0;" vertex="1" parent="1">
          <mxGeometry x="50" y="170" width="30" height="60" as="geometry" />
        </mxCell>
        <mxCell id="wVDAjLhzSWAhfLpEM_xM-3" value="Auth Server" style="whiteSpace=wrap;html=1;aspect=fixed;" vertex="1" parent="1">
          <mxGeometry x="480" y="20" width="80" height="80" as="geometry" />
        </mxCell>
        <mxCell id="wVDAjLhzSWAhfLpEM_xM-6" value="Gateway" style="whiteSpace=wrap;html=1;aspect=fixed;" vertex="1" parent="1">
          <mxGeometry x="310" y="210" width="130" height="130" as="geometry" />
        </mxCell>
        <mxCell id="wVDAjLhzSWAhfLpEM_xM-8" value="" style="endArrow=classic;html=1;exitX=1;exitY=0.5;exitDx=0;exitDy=0;entryX=0.002;entryY=0.296;entryDx=0;entryDy=0;entryPerimeter=0;" edge="1" parent="1" target="wVDAjLhzSWAhfLpEM_xM-6">
          <mxGeometry width="50" height="50" relative="1" as="geometry">
            <mxPoint x="90" y="200" as="sourcePoint" />
            <mxPoint x="170" y="120" as="targetPoint" />
          </mxGeometry>
        </mxCell>
        <mxCell id="wVDAjLhzSWAhfLpEM_xM-9" value="POST login" style="edgeLabel;html=1;align=center;verticalAlign=middle;resizable=0;points=[];" vertex="1" connectable="0" parent="wVDAjLhzSWAhfLpEM_xM-8">
          <mxGeometry x="-0.4737" y="-2" relative="1" as="geometry">
            <mxPoint as="offset" />
          </mxGeometry>
        </mxCell>
        <mxCell id="wVDAjLhzSWAhfLpEM_xM-10" value="" style="shape=cylinder3;whiteSpace=wrap;html=1;boundedLbl=1;backgroundOutline=1;size=15;" vertex="1" parent="1">
          <mxGeometry x="680" y="20" width="60" height="80" as="geometry" />
        </mxCell>
        <mxCell id="wVDAjLhzSWAhfLpEM_xM-11" value="" style="endArrow=classic;html=1;exitX=1;exitY=0.5;exitDx=0;exitDy=0;entryX=0;entryY=0.5;entryDx=0;entryDy=0;entryPerimeter=0;" edge="1" parent="1" source="wVDAjLhzSWAhfLpEM_xM-3" target="wVDAjLhzSWAhfLpEM_xM-10">
          <mxGeometry width="50" height="50" relative="1" as="geometry">
            <mxPoint x="400" y="410" as="sourcePoint" />
            <mxPoint x="450" y="360" as="targetPoint" />
          </mxGeometry>
        </mxCell>
        <mxCell id="wVDAjLhzSWAhfLpEM_xM-13" value="" style="endArrow=classic;startArrow=classic;html=1;entryX=0;entryY=0.5;entryDx=0;entryDy=0;exitX=1.006;exitY=0.529;exitDx=0;exitDy=0;exitPerimeter=0;" edge="1" parent="1" source="wVDAjLhzSWAhfLpEM_xM-6" target="wVDAjLhzSWAhfLpEM_xM-14">
          <mxGeometry width="50" height="50" relative="1" as="geometry">
            <mxPoint x="360" y="200" as="sourcePoint" />
            <mxPoint x="410" y="150" as="targetPoint" />
          </mxGeometry>
        </mxCell>
        <mxCell id="wVDAjLhzSWAhfLpEM_xM-67" style="edgeStyle=orthogonalEdgeStyle;rounded=0;orthogonalLoop=1;jettySize=auto;html=1;entryX=0.5;entryY=1;entryDx=0;entryDy=0;" edge="1" parent="1" source="wVDAjLhzSWAhfLpEM_xM-14" target="wVDAjLhzSWAhfLpEM_xM-62">
          <mxGeometry relative="1" as="geometry" />
        </mxCell>
        <mxCell id="wVDAjLhzSWAhfLpEM_xM-14" value="Short URL" style="whiteSpace=wrap;html=1;aspect=fixed;" vertex="1" parent="1">
          <mxGeometry x="480" y="240" width="80" height="80" as="geometry" />
        </mxCell>
        <mxCell id="wVDAjLhzSWAhfLpEM_xM-19" value="" style="endArrow=classic;html=1;entryX=-0.008;entryY=0.446;entryDx=0;entryDy=0;entryPerimeter=0;" edge="1" parent="1" target="wVDAjLhzSWAhfLpEM_xM-6">
          <mxGeometry width="50" height="50" relative="1" as="geometry">
            <mxPoint x="90" y="220" as="sourcePoint" />
            <mxPoint x="260" y="220" as="targetPoint" />
          </mxGeometry>
        </mxCell>
        <mxCell id="wVDAjLhzSWAhfLpEM_xM-21" value="Short URL" style="edgeLabel;html=1;align=center;verticalAlign=middle;resizable=0;points=[];" vertex="1" connectable="0" parent="wVDAjLhzSWAhfLpEM_xM-19">
          <mxGeometry x="-0.3556" y="-1" relative="1" as="geometry">
            <mxPoint as="offset" />
          </mxGeometry>
        </mxCell>
        <mxCell id="wVDAjLhzSWAhfLpEM_xM-25" value="http://google.com/asdfasd" style="text;html=1;strokeColor=none;fillColor=none;align=center;verticalAlign=middle;whiteSpace=wrap;rounded=0;" vertex="1" parent="1">
          <mxGeometry x="40" y="540" width="370" height="20" as="geometry" />
        </mxCell>
        <mxCell id="wVDAjLhzSWAhfLpEM_xM-28" value="http://short.us/123456" style="text;html=1;strokeColor=none;fillColor=none;align=center;verticalAlign=middle;whiteSpace=wrap;rounded=0;" vertex="1" parent="1">
          <mxGeometry x="30" y="500" width="370" height="20" as="geometry" />
        </mxCell>
        <mxCell id="wVDAjLhzSWAhfLpEM_xM-29" value="Short URL" style="whiteSpace=wrap;html=1;aspect=fixed;" vertex="1" parent="1">
          <mxGeometry x="480" y="340" width="80" height="80" as="geometry" />
        </mxCell>
        <mxCell id="wVDAjLhzSWAhfLpEM_xM-30" value="Short URL" style="whiteSpace=wrap;html=1;aspect=fixed;" vertex="1" parent="1">
          <mxGeometry x="480" y="440" width="80" height="80" as="geometry" />
        </mxCell>
        <mxCell id="wVDAjLhzSWAhfLpEM_xM-31" value="" style="endArrow=classic;startArrow=classic;html=1;entryX=0;entryY=0.5;entryDx=0;entryDy=0;exitX=1;exitY=0.75;exitDx=0;exitDy=0;" edge="1" parent="1" source="wVDAjLhzSWAhfLpEM_xM-6" target="wVDAjLhzSWAhfLpEM_xM-29">
          <mxGeometry width="50" height="50" relative="1" as="geometry">
            <mxPoint x="369.03999999999996" y="217.03999999999996" as="sourcePoint" />
            <mxPoint x="490" y="290" as="targetPoint" />
          </mxGeometry>
        </mxCell>
        <mxCell id="wVDAjLhzSWAhfLpEM_xM-32" value="&lt;div&gt;a-zA-Z0-9 = 62^6 = &lt;span class=&quot;qv3Wpe&quot; id=&quot;cwos&quot;&gt;56800235584&lt;/span&gt;&lt;/div&gt;" style="text;html=1;strokeColor=none;fillColor=none;align=center;verticalAlign=middle;whiteSpace=wrap;rounded=0;" vertex="1" parent="1">
          <mxGeometry x="85" y="460" width="280" height="20" as="geometry" />
        </mxCell>
        <mxCell id="wVDAjLhzSWAhfLpEM_xM-33" value="&lt;div&gt;Zookeeper&lt;/div&gt;" style="whiteSpace=wrap;html=1;aspect=fixed;" vertex="1" parent="1">
          <mxGeometry x="660" y="560" width="80" height="80" as="geometry" />
        </mxCell>
        <mxCell id="wVDAjLhzSWAhfLpEM_xM-35" value="" style="endArrow=classic;startArrow=classic;html=1;exitX=0.988;exitY=0.588;exitDx=0;exitDy=0;exitPerimeter=0;" edge="1" parent="1">
          <mxGeometry width="50" height="50" relative="1" as="geometry">
            <mxPoint x="559.04" y="279.99999999999994" as="sourcePoint" />
            <mxPoint x="680" y="560" as="targetPoint" />
          </mxGeometry>
        </mxCell>
        <mxCell id="wVDAjLhzSWAhfLpEM_xM-36" value="" style="endArrow=classic;startArrow=classic;html=1;exitX=0.99;exitY=0.617;exitDx=0;exitDy=0;exitPerimeter=0;" edge="1" parent="1" source="wVDAjLhzSWAhfLpEM_xM-29">
          <mxGeometry width="50" height="50" relative="1" as="geometry">
            <mxPoint x="569.04" y="290" as="sourcePoint" />
            <mxPoint x="680" y="560" as="targetPoint" />
          </mxGeometry>
        </mxCell>
        <mxCell id="wVDAjLhzSWAhfLpEM_xM-37" value="" style="shape=cylinder3;whiteSpace=wrap;html=1;boundedLbl=1;backgroundOutline=1;size=15;" vertex="1" parent="1">
          <mxGeometry x="680" y="240" width="60" height="85" as="geometry" />
        </mxCell>
        <mxCell id="wVDAjLhzSWAhfLpEM_xM-43" value="" style="endArrow=classic;html=1;entryX=0.008;entryY=0.615;entryDx=0;entryDy=0;entryPerimeter=0;" edge="1" parent="1" target="wVDAjLhzSWAhfLpEM_xM-6">
          <mxGeometry width="50" height="50" relative="1" as="geometry">
            <mxPoint x="90" y="240" as="sourcePoint" />
            <mxPoint x="278" y="238" as="targetPoint" />
          </mxGeometry>
        </mxCell>
        <mxCell id="wVDAjLhzSWAhfLpEM_xM-44" value="Short URL" style="edgeLabel;html=1;align=center;verticalAlign=middle;resizable=0;points=[];" vertex="1" connectable="0" parent="wVDAjLhzSWAhfLpEM_xM-43">
          <mxGeometry x="-0.3556" y="-1" relative="1" as="geometry">
            <mxPoint as="offset" />
          </mxGeometry>
        </mxCell>
        <mxCell id="wVDAjLhzSWAhfLpEM_xM-45" value="&lt;div&gt;GET short URL&lt;/div&gt;" style="edgeLabel;html=1;align=center;verticalAlign=middle;resizable=0;points=[];" vertex="1" connectable="0" parent="wVDAjLhzSWAhfLpEM_xM-43">
          <mxGeometry x="-0.4261" y="-3" relative="1" as="geometry">
            <mxPoint as="offset" />
          </mxGeometry>
        </mxCell>
        <mxCell id="wVDAjLhzSWAhfLpEM_xM-50" value="&lt;div&gt;Anônimo&lt;/div&gt;" style="shape=umlActor;verticalLabelPosition=bottom;verticalAlign=top;html=1;outlineConnect=0;" vertex="1" parent="1">
          <mxGeometry x="50" y="280" width="30" height="60" as="geometry" />
        </mxCell>
        <mxCell id="wVDAjLhzSWAhfLpEM_xM-51" value="" style="endArrow=classic;html=1;entryX=0;entryY=0.75;entryDx=0;entryDy=0;" edge="1" parent="1" target="wVDAjLhzSWAhfLpEM_xM-6">
          <mxGeometry width="50" height="50" relative="1" as="geometry">
            <mxPoint x="90" y="320" as="sourcePoint" />
            <mxPoint x="280" y="270" as="targetPoint" />
          </mxGeometry>
        </mxCell>
        <mxCell id="wVDAjLhzSWAhfLpEM_xM-52" value="GET Short URL" style="edgeLabel;html=1;align=center;verticalAlign=middle;resizable=0;points=[];" vertex="1" connectable="0" parent="wVDAjLhzSWAhfLpEM_xM-51">
          <mxGeometry x="-0.3556" y="-1" relative="1" as="geometry">
            <mxPoint as="offset" />
          </mxGeometry>
        </mxCell>
        <mxCell id="wVDAjLhzSWAhfLpEM_xM-54" value="" style="shape=cylinder3;whiteSpace=wrap;html=1;boundedLbl=1;backgroundOutline=1;size=15;" vertex="1" parent="1">
          <mxGeometry x="760" y="242.5" width="60" height="80" as="geometry" />
        </mxCell>
        <mxCell id="wVDAjLhzSWAhfLpEM_xM-55" value="" style="shape=cylinder3;whiteSpace=wrap;html=1;boundedLbl=1;backgroundOutline=1;size=15;" vertex="1" parent="1">
          <mxGeometry x="760" y="340" width="60" height="80" as="geometry" />
        </mxCell>
        <mxCell id="wVDAjLhzSWAhfLpEM_xM-57" value="REDIS" style="whiteSpace=wrap;html=1;aspect=fixed;" vertex="1" parent="1">
          <mxGeometry x="385" y="560" width="80" height="80" as="geometry" />
        </mxCell>
        <mxCell id="wVDAjLhzSWAhfLpEM_xM-58" value="" style="endArrow=classic;startArrow=classic;html=1;entryX=0.5;entryY=0;entryDx=0;entryDy=0;" edge="1" parent="1" target="wVDAjLhzSWAhfLpEM_xM-57">
          <mxGeometry width="50" height="50" relative="1" as="geometry">
            <mxPoint x="520" y="420" as="sourcePoint" />
            <mxPoint x="690" y="300" as="targetPoint" />
          </mxGeometry>
        </mxCell>
        <mxCell id="wVDAjLhzSWAhfLpEM_xM-60" value="" style="endArrow=classic;startArrow=classic;html=1;exitX=0.5;exitY=1;exitDx=0;exitDy=0;entryX=0.5;entryY=0;entryDx=0;entryDy=0;" edge="1" parent="1" source="wVDAjLhzSWAhfLpEM_xM-14" target="wVDAjLhzSWAhfLpEM_xM-57">
          <mxGeometry width="50" height="50" relative="1" as="geometry">
            <mxPoint x="530" y="430" as="sourcePoint" />
            <mxPoint x="410" y="550" as="targetPoint" />
          </mxGeometry>
        </mxCell>
        <mxCell id="wVDAjLhzSWAhfLpEM_xM-68" style="edgeStyle=orthogonalEdgeStyle;rounded=0;orthogonalLoop=1;jettySize=auto;html=1;entryX=0;entryY=0.5;entryDx=0;entryDy=0;" edge="1" parent="1" source="wVDAjLhzSWAhfLpEM_xM-62" target="wVDAjLhzSWAhfLpEM_xM-63">
          <mxGeometry relative="1" as="geometry" />
        </mxCell>
        <mxCell id="wVDAjLhzSWAhfLpEM_xM-62" value="MQ" style="whiteSpace=wrap;html=1;aspect=fixed;" vertex="1" parent="1">
          <mxGeometry x="560" y="135" width="50" height="50" as="geometry" />
        </mxCell>
        <mxCell id="wVDAjLhzSWAhfLpEM_xM-69" style="edgeStyle=orthogonalEdgeStyle;rounded=0;orthogonalLoop=1;jettySize=auto;html=1;" edge="1" parent="1" source="wVDAjLhzSWAhfLpEM_xM-63" target="wVDAjLhzSWAhfLpEM_xM-37">
          <mxGeometry relative="1" as="geometry" />
        </mxCell>
        <mxCell id="wVDAjLhzSWAhfLpEM_xM-70" style="edgeStyle=orthogonalEdgeStyle;rounded=0;orthogonalLoop=1;jettySize=auto;html=1;entryX=0.5;entryY=0;entryDx=0;entryDy=0;" edge="1" parent="1" source="wVDAjLhzSWAhfLpEM_xM-63" target="wVDAjLhzSWAhfLpEM_xM-62">
          <mxGeometry relative="1" as="geometry" />
        </mxCell>
        <mxCell id="wVDAjLhzSWAhfLpEM_xM-63" value="Write on DB" style="whiteSpace=wrap;html=1;aspect=fixed;" vertex="1" parent="1">
          <mxGeometry x="680" y="130" width="60" height="60" as="geometry" />
        </mxCell>
        <mxCell id="wVDAjLhzSWAhfLpEM_xM-71" value="&lt;div&gt;CDN&lt;/div&gt;" style="whiteSpace=wrap;html=1;aspect=fixed;" vertex="1" parent="1">
          <mxGeometry x="360" y="30" width="80" height="80" as="geometry" />
        </mxCell>
        <mxCell id="wVDAjLhzSWAhfLpEM_xM-73" value="DNS" style="whiteSpace=wrap;html=1;aspect=fixed;" vertex="1" parent="1">
          <mxGeometry x="120" y="90" width="80" height="80" as="geometry" />
        </mxCell>
        <mxCell id="wVDAjLhzSWAhfLpEM_xM-76" style="edgeStyle=orthogonalEdgeStyle;rounded=0;orthogonalLoop=1;jettySize=auto;html=1;entryX=0.5;entryY=1;entryDx=0;entryDy=0;" edge="1" parent="1" source="wVDAjLhzSWAhfLpEM_xM-75" target="wVDAjLhzSWAhfLpEM_xM-71">
          <mxGeometry relative="1" as="geometry" />
        </mxCell>
        <mxCell id="wVDAjLhzSWAhfLpEM_xM-75" value="NGINX" style="whiteSpace=wrap;html=1;aspect=fixed;" vertex="1" parent="1">
          <mxGeometry x="240" y="90" width="80" height="80" as="geometry" />
        </mxCell>
      </root>
    </mxGraphModel>
  </diagram>
</mxfile>
